<mxfile host="app.diagrams.net" modified="2023-11-03T10:39:09.583Z" agent="Mozilla/5.0 (Windows NT 10.0; Win64; x64) AppleWebKit/537.36 (KHTML, like Gecko) Chrome/118.0.0.0 Safari/537.36 Edg/118.0.2088.76" version="21.5.0" etag="TI6t8WRRHVKt1keHH23V" type="github">
  <diagram name="第 1 页" id="iwjEGgm6fESoqkBKVa59">
    <mxGraphModel>
      <root>
        <mxCell id="0" />
        <mxCell id="1" parent="0" />
      </root>
    </mxGraphModel>
  </diagram>
</mxfile>
